<?xml version="1.0" encoding="UTF-8" standalone="no"?>
<!-- Created with Inkscape (http://www.inkscape.org/) -->

<svg
   width="133.82817mm"
   height="135.25586mm"
   viewBox="0 0 133.82817 135.25586"
   version="1.1"
   id="svg5"
   xml:space="preserve"
   xmlns="http://www.w3.org/2000/svg"
   xmlns:svg="http://www.w3.org/2000/svg"><defs
     id="defs2" /><g
     id="layer1"
     transform="translate(-25.826281,-37.112712)"><g
       id="g203"
       transform="translate(-23.823236,-5.5610356)"
       style="fill:#808000"><path
         style="fill:#808000;fill-opacity:1;stroke-width:0.264583"
         d="m 73.157879,151.04096 -0.641433,-0.7276 0.727604,0.64143 c 0.400183,0.35279 0.727604,0.68021 0.727604,0.7276 0,0.0474 -0.03878,0.0862 -0.08617,0.0862 -0.04739,0 -0.374816,-0.32743 -0.727604,-0.72761 z m 84.811041,-22.55573 c 0,-8.94953 0.0333,-12.6107 0.0739,-8.13593 0.0407,4.47476 0.0407,11.79711 0,16.27187 -0.0407,4.47477 -0.0739,0.81359 -0.0739,-8.13594 z M 84.150177,92.237319 c 0,-8.949531 0.03327,-12.610702 0.07394,-8.135937 0.04066,4.474766 0.04066,11.797109 0,16.271878 -0.04067,4.47476 -0.07394,0.81359 -0.07394,-8.135941 z m -8.995832,-0.264583 c 0,-8.949531 0.03327,-12.610703 0.07394,-8.135937 0.04067,4.474765 0.04067,11.797109 0,16.271871 -0.04066,4.47477 -0.07394,0.8136 -0.07394,-8.135934 z m 84.649455,-22.555728 -0.50402,-0.595313 0.59531,0.504029 c 0.32742,0.277214 0.59531,0.545105 0.59531,0.595312 0,0.05021 -0.0411,0.09128 -0.0913,0.09128 -0.0502,0 -0.3181,-0.26789 -0.59532,-0.595312 z M 132.6754,51.557634 c -0.32911,-0.419644 -0.31975,-0.429003 0.0999,-0.0999 0.25466,0.199719 0.46302,0.408078 0.46302,0.463021 0,0.05494 -0.045,0.09989 -0.0999,0.09989 -0.0549,0 -0.2633,-0.20836 -0.46302,-0.463021 z"
         id="path219" /><path
         style="fill:#808000;fill-opacity:1;stroke-width:0.264583"
         d="m 99.478807,168.10659 -0.504029,-0.59532 0.595313,0.50403 c 0.327422,0.27722 0.595309,0.54511 0.595309,0.59531 0,0.0502 -0.0411,0.0913 -0.0913,0.0913 -0.0502,0 -0.318099,-0.26789 -0.595313,-0.59531 z m 49.494223,-39.75365 c 3e-5,-8.87677 0.0334,-12.46984 0.074,-7.98461 0.0407,4.48523 0.0406,11.74805 -7e-5,16.13958 -0.0407,4.39154 -0.074,0.7218 -0.074,-8.15497 z M 84.046709,75.678814 c 0.0127,-0.308226 0.07539,-0.370919 0.159851,-0.159853 0.07643,0.190994 0.06703,0.419198 -0.02088,0.507119 -0.08792,0.08792 -0.150452,-0.06835 -0.138964,-0.347266 z M 166.54207,63.463883 c -0.32911,-0.419644 -0.31975,-0.429002 0.0999,-0.0999 0.25466,0.19972 0.46302,0.408079 0.46302,0.463021 0,0.05494 -0.045,0.0999 -0.0999,0.0999 -0.0549,0 -0.2633,-0.208359 -0.46302,-0.463021 z M 133.46915,52.351384 c -0.32911,-0.419644 -0.31975,-0.429003 0.0999,-0.0999 0.25466,0.199719 0.46302,0.408078 0.46302,0.463021 0,0.05494 -0.045,0.09989 -0.0999,0.09989 -0.0549,0 -0.2633,-0.208359 -0.46302,-0.46302 z"
         id="path217" /><path
         style="fill:#808000;fill-opacity:1;stroke-width:0.264583"
         d="m 66.670475,157.25867 -0.504029,-0.59531 0.595313,0.50403 c 0.327422,0.27721 0.595312,0.5451 0.595312,0.59531 0,0.0502 -0.04108,0.0913 -0.09128,0.0913 -0.05021,0 -0.318097,-0.26789 -0.595312,-0.59531 z m 82.199145,-12.52361 c 0.0127,-0.30823 0.0754,-0.37092 0.15985,-0.15985 0.0764,0.19099 0.067,0.4192 -0.0209,0.50712 -0.0879,0.0879 -0.15045,-0.0684 -0.13897,-0.34727 z"
         id="path215" /><path
         style="fill:#808000;fill-opacity:1;stroke-width:0.264583"
         d="m 123.12109,169.04394 c 0.32912,-0.0633 0.80537,-0.0609 1.05833,0.005 0.25297,0.0662 -0.0163,0.118 -0.59839,0.11507 -0.58209,-0.003 -0.78906,-0.0571 -0.45994,-0.12041 z m 60.14436,-47.06304 c 0.0127,-0.30823 0.0754,-0.37092 0.15986,-0.15986 0.0764,0.191 0.067,0.4192 -0.0209,0.50712 -0.0879,0.0879 -0.15045,-0.0683 -0.13896,-0.34726 z M 49.650877,98.168396 c 0.0127,-0.308226 0.07539,-0.370919 0.159853,-0.159853 0.07643,0.190995 0.06703,0.419198 -0.02089,0.507119 -0.08792,0.08792 -0.150452,-0.06835 -0.138964,-0.347266 z m 40.989527,-38.57472 c 0,-0.05494 0.208359,-0.263302 0.46302,-0.463021 0.419645,-0.329107 0.429004,-0.319749 0.0999,0.0999 -0.19972,0.254661 -0.40808,0.463021 -0.46302,0.463021 -0.05494,0 -0.0999,-0.04495 -0.0999,-0.09989 z m 18.457776,-8.289318 c 0.32911,-0.06329 0.80536,-0.06088 1.05833,0.0053 0.25296,0.06622 -0.0163,0.118003 -0.5984,0.115066 -0.58208,-0.0029 -0.78905,-0.05712 -0.45993,-0.120406 z"
         id="path213" /><path
         style="fill:#808000;fill-opacity:1;stroke-width:0.264583"
         d="m 141.30811,161.82273 c 0.26339,-0.29104 0.53842,-0.52916 0.61118,-0.52916 0.0728,0 -0.0832,0.23812 -0.3466,0.52916 -0.26339,0.29104 -0.53842,0.52917 -0.61118,0.52917 -0.0728,0 0.0832,-0.23813 0.3466,-0.52917 z m -50.601561,-3.35738 c 0.254662,-0.0666 0.671381,-0.0666 0.926042,0 0.254662,0.0666 0.0463,0.121 -0.463021,0.121 -0.509323,0 -0.717682,-0.0545 -0.463021,-0.121 z m 40.357811,-26.01156 c -0.0412,-3.63813 0.0143,-6.61469 0.12344,-6.61459 0.10914,1.1e-4 0.19843,2.97676 0.19843,6.61478 0,3.63802 -0.0555,6.61459 -0.12343,6.61459 -0.0679,0 -0.15719,-2.97666 -0.19844,-6.61478 z m 52.24693,-11.77376 c 0.003,-0.58209 0.0571,-0.78906 0.1204,-0.45994 0.0633,0.32912 0.0609,0.80537 -0.005,1.05833 -0.0662,0.25297 -0.118,-0.0163 -0.11507,-0.59839 z m -81.44015,-10.45105 c 0,-4.72942 0.0359,-6.66419 0.0797,-4.29947 0.0439,2.36471 0.0439,6.23424 0,8.59895 -0.0439,2.36472 -0.0797,0.42995 -0.0797,-4.29948 z m 29.36875,0 c 0,-4.72942 0.0359,-6.66419 0.0797,-4.29947 0.0438,2.36471 0.0438,6.23424 0,8.59895 -0.0439,2.36472 -0.0797,0.42995 -0.0797,-4.29948 z M 49.702052,99.645652 c 0,-0.654844 0.0516,-0.922734 0.114662,-0.595312 0.06306,0.327422 0.06306,0.863203 0,1.19062 -0.06306,0.32743 -0.114662,0.0595 -0.114662,-0.595308 z m 52.169908,-5.363043 c -0.0709,-0.18478 -0.0967,-3.191108 -0.0574,-6.680729 l 0.0715,-6.344769 0.13183,6.680928 c 0.0725,3.674506 0.0983,6.680834 0.0574,6.680729 -0.0409,-1.09e-4 -0.13247,-0.151382 -0.20337,-0.336159 z m 39.63459,-32.390172 c 0.25466,-0.06655 0.67138,-0.06655 0.92604,0 0.25466,0.06655 0.0463,0.121 -0.46302,0.121 -0.50933,0 -0.71768,-0.05445 -0.46302,-0.121 z"
         id="path211" /><path
         style="fill:#808000;fill-opacity:1;stroke-width:0.264583"
         d="m 56.794627,131.50589 c 0.01269,-0.30822 0.07539,-0.37091 0.159852,-0.15985 0.07643,0.191 0.06703,0.4192 -0.02089,0.50712 -0.08792,0.0879 -0.150453,-0.0684 -0.138964,-0.34727 z M 176.1217,88.643397 c 0.0127,-0.308227 0.0754,-0.37092 0.15986,-0.159854 0.0764,0.190995 0.067,0.419198 -0.0209,0.507119 -0.0879,0.08792 -0.15045,-0.06835 -0.13896,-0.347265 z m 0,-2.910417 c 0.0127,-0.308226 0.0754,-0.370919 0.15986,-0.159853 0.0764,0.190995 0.067,0.419198 -0.0209,0.507119 -0.0879,0.08792 -0.15045,-0.06835 -0.13896,-0.347266 z M 66.034155,81.521695 c 0.341774,-0.363802 0.680939,-0.661459 0.753699,-0.661459 0.07276,0 -0.147342,0.297657 -0.489116,0.661459 -0.341774,0.363802 -0.680939,0.661458 -0.753699,0.661458 -0.07276,0 0.147342,-0.297656 0.489116,-0.661458 z"
         id="path209" /><path
         style="fill:#808000;fill-opacity:1;stroke-width:0.264583"
         d="m 137.33255,124.51648 c 0,-10.55026 0.0328,-14.86627 0.0728,-9.59114 0.0401,5.27513 0.0401,13.90716 0,19.18229 -0.0401,5.27513 -0.0728,0.95911 -0.0728,-9.59115 z m -80.537923,9.63525 c 0.01269,-0.30823 0.07539,-0.37092 0.159852,-0.15986 0.07643,0.191 0.06703,0.4192 -0.02089,0.50712 -0.08792,0.0879 -0.150453,-0.0683 -0.138964,-0.34726 z m 0,-1.85209 c 0.01269,-0.30822 0.07539,-0.37091 0.159852,-0.15985 0.07643,0.191 0.06703,0.4192 -0.02089,0.50712 -0.08792,0.0879 -0.150453,-0.0683 -0.138964,-0.34727 z m 110.152923,-29.54513 -0.50403,-0.59532 0.59532,0.50403 c 0.32742,0.27722 0.59531,0.54511 0.59531,0.59531 0,0.0502 -0.0411,0.0913 -0.0913,0.0913 -0.0502,0 -0.3181,-0.26789 -0.59532,-0.59531 z m 9.17415,-14.904863 c 0.0127,-0.308227 0.0754,-0.37092 0.15986,-0.159854 0.0764,0.190995 0.067,0.419198 -0.0209,0.507119 -0.0879,0.08792 -0.15045,-0.06835 -0.13896,-0.347265 z m 0.0209,-1.168578 c 0,-0.363802 0.0601,-0.51263 0.13345,-0.330729 0.0734,0.181901 0.0734,0.479558 0,0.661459 -0.0734,0.181901 -0.13345,0.03307 -0.13345,-0.33073 z M 95.752172,78.214403 c 0,-0.945885 0.04802,-1.332838 0.106714,-0.859896 0.05869,0.472943 0.05869,1.246849 0,1.719792 -0.05869,0.472943 -0.106714,0.08599 -0.106714,-0.859896 z"
         id="path207" /><path
         style="fill:#808000;fill-opacity:1;stroke-width:0.264583"
         d="m 119.90564,177.68121 c -1.00281,-0.11637 -2.72922,-0.41242 -3.83646,-0.65791 -1.10723,-0.24548 -2.84659,-0.74502 -3.86524,-1.11009 -1.01864,-0.36506 -2.86411,-1.17342 -4.10104,-1.79635 -1.23692,-0.62292 -3.08239,-1.7217 -4.10104,-2.44171 -1.01864,-0.72003 -2.76897,-2.16611 -3.88961,-3.21352 l -2.037521,-1.9044 -1.666642,0.32123 c -0.916654,0.17667 -3.393048,0.31786 -5.5031,0.31375 -2.885289,-0.006 -4.507764,-0.14842 -6.544117,-0.57594 -1.489212,-0.31265 -3.572806,-0.87922 -4.630208,-1.25903 -1.057402,-0.37981 -2.755987,-1.10525 -3.774633,-1.6121 -1.018645,-0.50683 -2.804583,-1.5547 -3.968749,-2.32859 -1.164167,-0.77389 -2.983588,-2.20275 -4.043159,-3.17525 -1.05957,-0.9725 -2.676109,-2.73741 -3.592308,-3.92202 -0.9162,-1.18461 -2.089405,-2.86821 -2.607123,-3.74134 -0.517718,-0.87312 -1.179784,-2.06375 -1.471256,-2.64583 -0.291473,-0.58209 -0.910305,-2.1299 -1.375184,-3.43959 -0.464879,-1.30968 -1.08086,-3.57187 -1.368847,-5.02708 -0.366662,-1.85276 -0.522793,-3.71648 -0.52088,-6.21771 0.0015,-2.01686 0.177591,-4.55095 0.404383,-5.82083 0.220908,-1.23693 0.57572,-2.8251 0.788472,-3.52926 l 0.386822,-1.28031 -1.778144,-2.34208 c -0.97798,-1.28814 -2.333692,-3.39574 -3.012695,-4.68354 -0.679003,-1.2878 -1.651361,-3.58708 -2.160795,-5.1095 -0.509434,-1.52242 -1.121806,-3.95838 -1.360826,-5.41324 -0.329371,-2.0048 -0.400222,-3.63804 -0.292657,-6.746234 0.09663,-2.792209 0.310188,-4.776568 0.669152,-6.217708 0.289974,-1.164167 0.848396,-3.009636 1.240937,-4.101042 0.392542,-1.091406 1.10563,-2.765528 1.584641,-3.720272 0.47901,-0.954743 1.584675,-2.800212 2.457032,-4.101041 0.872357,-1.300829 2.519309,-3.308051 3.659894,-4.460491 1.140585,-1.15244 3.00281,-2.786565 4.138277,-3.631388 1.135467,-0.844822 3.254708,-2.131888 4.709425,-2.860143 1.454717,-0.728257 3.859448,-1.696045 5.343847,-2.15064 1.4844,-0.454595 2.825178,-0.861372 2.979507,-0.903947 0.154326,-0.04258 0.426077,-0.562987 0.60389,-1.156469 0.17781,-0.593482 0.917731,-2.266467 1.644263,-3.717743 0.726536,-1.451276 2.053283,-3.627234 2.948332,-4.835462 0.895048,-1.208227 2.570715,-3.120905 3.723703,-4.250395 1.152988,-1.12949 3.252943,-2.823599 4.666567,-3.764686 1.413624,-0.941087 3.467709,-2.125731 4.564631,-2.632541 1.096923,-0.50681 2.913179,-1.22139 4.036121,-1.587955 1.122948,-0.366566 3.075438,-0.867934 4.338888,-1.114151 1.54231,-0.300564 3.60131,-0.446089 6.26592,-0.442863 3.04976,0.0037 4.59573,0.137744 6.67641,0.578918 1.48921,0.315762 3.57281,0.884992 4.63021,1.264955 1.0574,0.379963 2.93458,1.200508 4.17151,1.823434 1.23692,0.622926 3.08239,1.721699 4.10104,2.441718 1.01864,0.72002 2.76897,2.166104 3.8896,3.21352 l 2.03753,1.904392 1.66664,-0.321227 c 0.91666,-0.176675 3.39305,-0.317862 5.5031,-0.31375 2.88529,0.0056 4.50777,0.148416 6.54412,0.575941 1.48921,0.312655 3.5728,0.879219 4.63021,1.259031 1.0574,0.379813 2.75598,1.105255 3.77463,1.612094 1.01864,0.506839 2.86411,1.590322 4.10104,2.407741 1.23693,0.817419 3.38718,2.620197 4.77833,4.006173 1.44721,1.441819 3.23872,3.587358 4.18734,5.014821 0.91188,1.372174 1.99248,3.158112 2.40133,3.96875 0.40885,0.810636 1.1134,2.523016 1.56566,3.805285 0.45226,1.282271 1.06464,3.520601 1.36083,4.974066 0.38699,1.898954 0.53848,3.662799 0.53831,6.267558 -1.3e-4,2.036463 -0.17357,4.610385 -0.3958,5.87385 -0.21756,1.236927 -0.56964,2.825097 -0.78239,3.529264 l -0.38682,1.280308 1.77814,2.342079 c 0.97798,1.28814 2.33369,3.39574 3.0127,4.68354 0.679,1.2878 1.65136,3.58708 2.16079,5.1095 0.50944,1.52242 1.12181,3.95838 1.36083,5.41324 0.32734,1.99247 0.40101,3.65716 0.29853,6.74623 -0.10625,3.20288 -0.2823,4.66484 -0.80384,6.67531 -0.36728,1.41585 -1.06705,3.56863 -1.55504,4.78397 -0.48798,1.21534 -1.39588,3.0987 -2.01756,4.18525 -0.62167,1.08655 -1.65959,2.68423 -2.30649,3.5504 -0.6469,0.86618 -2.03843,2.45468 -3.09228,3.53002 -1.05386,1.07533 -2.86861,2.66287 -4.03278,3.52787 -1.16417,0.865 -3.42635,2.2136 -5.02708,2.9969 -1.60073,0.78331 -4.08484,1.75854 -5.52025,2.1672 l -2.60983,0.743 -0.59499,1.58272 c -0.32725,0.87049 -0.98415,2.35363 -1.45979,3.29586 -0.47564,0.94224 -1.37663,2.48927 -2.00219,3.43785 -0.62557,0.94858 -1.90622,2.61766 -2.84589,3.70907 -0.93967,1.09141 -2.50088,2.63922 -3.46937,3.43958 -0.96847,0.80037 -2.8241,2.12655 -4.12361,2.94707 -1.2995,0.82053 -3.40779,1.92967 -4.68507,2.46476 -1.27729,0.5351 -3.39391,1.25004 -4.70359,1.58876 -1.30969,0.33872 -3.60631,0.74762 -5.10361,0.90868 -1.49729,0.16105 -3.34276,0.27717 -4.10104,0.25804 -0.75828,-0.0191 -2.19917,-0.12998 -3.20199,-0.24633 z m 9.69245,-9.22641 c 1.1073,-0.2832 2.89508,-0.88201 3.97286,-1.33069 1.07777,-0.44868 2.90235,-1.43371 4.05462,-2.18895 1.15227,-0.75525 2.93386,-2.21099 3.9591,-3.23499 1.02523,-1.024 2.34839,-2.57619 2.94035,-3.44931 0.59196,-0.87313 1.43316,-2.30188 1.86933,-3.175 0.43617,-0.87313 1.04796,-2.33264 1.35953,-3.24337 0.31157,-0.91072 0.74595,-2.69666 0.96529,-3.96874 0.3323,-1.92722 0.38738,-5.11364 0.33033,-19.10922 l -0.0685,-16.79633 -5.55625,-3.23963 c -3.05594,-1.7818 -5.70508,-3.24243 -5.88698,-3.24586 -0.26167,-0.005 -0.33073,4.0853 -0.33073,19.58608 0,16.89179 -0.0547,19.69802 -0.3966,20.35924 -0.21813,0.42181 -0.78367,1.05206 -1.25677,1.40056 -0.4731,0.34849 -7.01838,4.18026 -14.54508,8.51504 l -13.68491,7.88141 0.98491,0.78405 c 0.5417,0.43122 1.63975,1.16709 2.44012,1.63527 0.80036,0.46817 2.34817,1.21882 3.43958,1.66812 1.09141,0.44929 2.87734,1.00461 3.96875,1.23404 1.09141,0.22943 2.34156,0.46994 2.77812,0.53447 0.43657,0.0645 2.11133,0.0681 3.7217,0.008 1.67157,-0.0624 3.79182,-0.33024 4.9412,-0.6242 z M 97.472405,157.70777 c 1.408388,-0.3567 3.572735,-1.1572 4.809665,-1.7789 1.23693,-0.62169 8.29138,-4.62536 15.67656,-8.89705 l 13.4276,-7.7667 v -6.71286 c 0,-3.69207 -0.0623,-6.71286 -0.13837,-6.71286 -0.0761,0 -7.58434,4.29964 -16.68498,9.55475 -9.10063,5.25511 -16.942419,9.67622 -17.426191,9.8247 -0.483772,0.14847 -1.280142,0.19261 -1.769708,0.0981 -0.489564,-0.0945 -7.259272,-3.85556 -15.04379,-8.35785 -13.434065,-7.7698 -14.16504,-8.15632 -14.377274,-7.60232 -0.122981,0.32103 -0.166832,2.36962 -0.09744,4.55243 0.09537,3.00031 0.266041,4.44863 0.699412,5.93533 0.315291,1.08161 0.968733,2.82253 1.452095,3.86871 0.483361,1.04617 1.392501,2.66152 2.02031,3.58967 0.627809,0.92815 1.803462,2.38648 2.612564,3.24075 0.809101,0.85426 2.156507,2.08222 2.994236,2.72881 0.837726,0.64659 2.504601,1.69394 3.704166,2.32744 1.199563,0.6335 3.193055,1.46022 4.429982,1.83715 1.236927,0.37694 3.082396,0.79596 4.101042,0.93116 1.018646,0.1352 3.021483,0.18783 4.450752,0.11695 1.457129,-0.0722 3.723531,-0.41374 5.159374,-0.77739 z m 63.242915,-14.26742 c 1.26134,-0.65146 3.24929,-1.94932 4.41767,-2.88413 1.16837,-0.93482 2.86641,-2.63423 3.77342,-3.77647 0.90701,-1.14225 2.17645,-3.09618 2.82097,-4.34208 0.64453,-1.24589 1.49898,-3.32949 1.89878,-4.6302 0.67221,-2.187 0.72671,-2.70338 0.72438,-6.86286 -0.002,-3.78733 -0.0926,-4.82328 -0.57279,-6.55738 -0.31365,-1.1327 -1.04786,-3.0786 -1.63158,-4.32422 -0.58371,-1.24562 -1.58747,-3.00212 -2.23056,-3.90332 -0.64309,-0.90121 -1.83123,-2.31121 -2.64031,-3.13332 -0.80908,-0.82211 -2.10112,-1.96697 -2.87121,-2.54413 -0.77008,-0.577167 -7.81762,-4.751979 -15.66119,-9.277365 -7.84357,-4.525385 -14.33248,-8.221643 -14.41979,-8.213909 -0.0873,0.0077 -2.65906,1.46862 -5.715,3.246413 -3.05594,1.777796 -5.55625,3.341129 -5.55625,3.474077 0,0.132948 7.35719,4.490143 16.34931,9.682657 8.99212,5.192507 16.65723,9.724807 17.03358,10.071757 0.37635,0.34695 0.84751,1.01395 1.04704,1.48222 0.29427,0.69061 0.36278,3.95103 0.36278,17.26406 0,11.67945 0.0833,16.41267 0.2887,16.41267 0.15878,0 1.32071,-0.53301 2.58205,-1.18447 z m -56.1934,-9.21449 c 3.05092,-1.7749 5.54198,-3.34615 5.53568,-3.49167 -0.006,-0.14552 -7.36287,-4.50835 -16.347935,-9.69519 -8.985067,-5.18684 -16.640923,-9.71121 -17.013014,-10.05417 -0.372091,-0.34295 -0.839777,-1.00668 -1.039304,-1.47495 -0.294265,-0.69061 -0.362776,-3.95103 -0.362776,-17.264062 0,-11.031887 -0.08891,-16.412665 -0.271188,-16.412665 -0.149154,0 -1.131419,0.432877 -2.182813,0.961951 -1.051393,0.529072 -2.622851,1.444554 -3.492129,2.034403 -0.869277,0.589848 -2.364812,1.856758 -3.32341,2.815357 -0.958598,0.958596 -2.249683,2.489168 -2.869078,3.401268 -0.619396,0.912101 -1.593199,2.635359 -2.164007,3.829463 -0.570809,1.194104 -1.298185,3.123599 -1.616393,4.287766 -0.476964,1.744982 -0.581972,2.860034 -0.597999,6.35 -0.0167,3.637149 0.06642,4.547569 0.590252,6.464609 0.33533,1.2272 1.00156,3.07942 1.48051,4.11605 0.47895,1.03662 1.323056,2.59239 1.875791,3.45726 0.552735,0.86487 1.851037,2.44666 2.885115,3.51507 1.034077,1.06842 2.46499,2.37811 3.179806,2.91042 0.714816,0.53231 7.679973,4.67618 15.478124,9.2086 7.798152,4.53241 14.297522,8.24679 14.443043,8.25417 0.145521,0.007 2.760795,-1.43878 5.811725,-3.21368 z m 19.462,-11.26197 7.27002,-4.19843 v -8.53648 -8.53647 l -7.27002,-4.198428 c -3.99851,-2.309135 -7.33497,-4.19843 -7.41435,-4.19843 -0.0794,0 -3.41584,1.889295 -7.41435,4.19843 l -7.27003,4.198428 v 8.53647 8.53648 l 7.27003,4.19843 c 3.99851,2.30913 7.33497,4.19843 7.41435,4.19843 0.0794,0 3.41584,-1.8893 7.41435,-4.19843 z M 95.671752,98.521173 c 0.0024,-9.058671 0.078,-17.899062 0.168116,-19.645311 0.09444,-1.830025 0.31668,-3.47743 0.524624,-3.888928 0.198424,-0.39266 0.74785,-0.998249 1.220946,-1.345756 0.473096,-0.347506 6.932362,-4.121612 14.353922,-8.3869 7.42156,-4.265288 13.5869,-7.836694 13.70076,-7.936457 0.11385,-0.09976 -0.51099,-0.685037 -1.38855,-1.300607 -0.87755,-0.615569 -2.7023,-1.643487 -4.05499,-2.284261 -1.35268,-0.640775 -3.45309,-1.402373 -4.66756,-1.692441 -1.21447,-0.290069 -3.17381,-0.604983 -4.3541,-0.69981 -1.18403,-0.09513 -3.24556,-0.03794 -4.599,0.127572 -1.34916,0.164991 -3.43276,0.608887 -4.63021,0.986436 -1.19745,0.377549 -2.891557,1.045945 -3.764682,1.485326 -0.873125,0.43938 -2.242343,1.245007 -3.042708,1.790282 -0.800364,0.545275 -2.042745,1.510955 -2.760845,2.145955 -0.7181,0.635001 -1.99581,2.023058 -2.839357,3.084573 -0.843547,1.061515 -2.132817,3.1454 -2.865043,4.630855 -0.732227,1.485455 -1.594086,3.653328 -1.915245,4.817494 -0.571119,2.070256 -0.585811,2.509404 -0.669988,20.028209 l -0.08607,17.911546 0.607335,0.39601 c 0.334034,0.2178 2.869523,1.70887 5.634419,3.31349 2.764895,1.60461 5.11638,2.92098 5.22552,2.92526 0.109141,0.004 0.200356,-7.40387 0.202703,-16.462537 z m 22.696908,-13.34549 c 8.97868,-5.193585 16.80242,-9.61749 17.38609,-9.830895 0.66373,-0.242678 1.40699,-0.321426 1.98437,-0.21024 0.50774,0.09777 7.29289,3.860014 15.07813,8.360539 13.39539,7.743671 14.16681,8.151637 14.37559,7.602606 0.12134,-0.31909 0.16746,-2.306572 0.1025,-4.416624 -0.088,-2.857179 -0.26723,-4.374731 -0.7023,-5.945218 -0.3213,-1.15982 -0.97761,-2.96027 -1.45845,-4.001003 -0.48085,-1.040731 -1.38793,-2.65163 -2.01574,-3.579778 -0.62781,-0.928148 -1.80346,-2.386483 -2.61256,-3.240746 -0.80911,-0.85426 -2.15651,-2.082229 -2.99424,-2.728817 -0.83773,-0.646589 -2.5046,-1.693154 -3.70417,-2.3257 -1.19956,-0.632546 -3.13352,-1.445696 -4.29769,-1.806999 -1.16416,-0.361303 -3.23536,-0.801048 -4.60265,-0.977212 -1.46588,-0.188867 -3.31156,-0.245197 -4.49791,-0.137277 -1.10657,0.100662 -2.81928,0.350282 -3.80603,0.554712 -0.98674,0.20443 -2.68224,0.716563 -3.76776,1.138073 -1.08553,0.42151 -8.52326,4.54579 -16.52831,9.165067 l -14.55463,8.398684 v 6.711857 c 0,3.691522 0.0654,6.711857 0.14545,6.711857 0.08,0 7.49163,-4.249298 16.47031,-9.442886 z"
         id="path205" /></g></g></svg>
